# Blender v2.83.4 OBJ File: ''
# www.blender.org
mtllib Player.mtl
o Cube_Cube.001
v 0.901372 -1.537555 0.721041
v 0.901372 0.686634 0.400681
v 0.901372 1.344764 0.400681
v 0.901372 1.537555 0.721041
v -1.090491 1.537555 -0.721041
v -0.903417 1.485173 -0.721041
v -0.903417 -1.012313 -0.721041
v -1.090491 -1.537555 -0.721041
v 0.901372 1.537555 -0.721041
v 0.901372 1.344764 -0.400681
v 0.901372 0.686634 -0.400681
v 0.901372 -1.537555 -0.721041
v -1.090491 -1.537555 0.721041
v -0.111592 -1.537555 0.721041
v -1.090491 1.537555 0.721041
v -1.090491 -1.537555 0.358811
v -0.111592 -1.537555 0.358811
v 0.901372 -1.537555 0.358811
v 0.443765 1.537555 -0.530581
v 0.443765 1.537555 0.530581
v -0.903417 1.485173 -1.359890
v -0.903417 -1.012313 -1.359890
v 0.714298 -1.012313 -0.721041
v -0.111592 -1.537555 -0.721041
v 0.714298 1.485173 -0.721041
v 0.714298 -1.012313 -1.359890
v 0.714298 1.485173 -1.359890
v 0.443765 2.424079 -0.530581
v 0.443765 2.424079 0.530581
v -0.632883 1.537555 0.530581
v -0.632883 1.537555 -0.530581
v 0.244425 2.520886 0.334109
v -0.433544 2.520886 0.334109
v -0.632883 2.424079 0.530581
v -0.632883 2.424079 -0.530581
v -0.433544 2.520886 -0.334109
v 0.244425 2.520886 -0.334109
v -1.283356 0.519126 -0.400681
v -1.518225 0.098334 -0.400681
v -2.090004 0.420091 -0.400681
v -1.855135 0.840883 -0.400681
v -2.090004 0.420091 0.400681
v -1.855135 0.840883 0.400681
v -1.090491 1.344764 -0.400681
v -1.090491 1.344764 0.400681
v -1.090491 0.686634 -0.400681
v -1.090491 0.686634 0.400681
v 1.812604 -0.027658 -0.400681
v 1.810733 -0.171052 -0.400681
v 1.155337 -0.162432 -0.400681
v 1.157208 -0.019037 -0.400681
v -1.518225 0.098334 0.400681
v -1.588051 -0.026765 0.400681
v -1.588051 -0.417177 -0.400681
v 1.738726 0.570909 0.400681
v 1.812604 -0.027658 0.400681
v 1.738726 0.570909 -0.400681
v 1.107829 0.463291 -0.400681
v 1.157208 -0.019037 0.400681
v 1.107829 0.463291 0.400681
v -1.283356 0.519126 0.400681
v -2.159829 0.294991 0.400681
v -2.219411 -0.053098 0.414485
v -1.566240 -0.051436 0.359654
v 1.153297 -0.318808 -0.400681
v 1.153297 -0.318808 0.400681
v 1.155337 -0.162432 0.400681
v 1.810733 -0.171052 0.400681
v -2.159829 -0.216262 -0.380440
v -1.566240 -0.548527 -0.138864
v -1.549702 -0.858444 0.533810
v -2.202873 -0.860106 0.588641
v -2.172335 -0.490836 -0.130071
v -2.202873 -0.059113 0.612923
v 1.808693 -0.327428 -0.400681
v 1.808693 -0.327428 0.400681
v -2.104412 -0.895921 1.770074
v -2.104412 -0.094928 1.794356
v 1.150698 -0.518013 0.400681
v 1.135225 -1.704014 0.400681
v 1.790621 -1.712635 0.400681
v 1.806094 -0.526634 0.400681
v 1.806094 -0.526634 -0.400681
v 1.150698 -0.518013 -0.400681
v -1.549702 -0.057451 0.558092
v 1.135225 -1.704014 -0.400681
v 1.790621 -1.712635 -0.400681
v -1.451240 -0.894259 1.715243
v -1.451240 -0.093266 1.739525
v -0.111592 -1.537555 -0.358811
v 0.305154 -3.417727 -0.358814
v 0.305154 -3.417727 0.358808
v -1.090491 -1.537555 -0.358811
v -0.341122 -3.419519 0.358808
v -0.341122 -3.419519 -0.358814
v 0.901372 -1.537555 -0.358811
v -1.292446 -3.187874 0.358810
v -1.292446 -3.187874 -0.358811
v 1.200021 -3.172007 -0.358811
v 1.200021 -3.172007 0.358810
v -1.224639 0.624323 0.400681
v -1.224639 0.624323 -0.400681
v -1.696582 1.115253 0.400681
v -1.696582 1.115253 -0.400681
v 1.099584 0.510306 0.400681
v 1.641112 0.752237 0.400681
v 1.641112 0.752237 -0.400681
v 1.099584 0.510306 -0.400681
v 1.288737 1.178869 0.400681
v 1.483684 0.986513 0.400681
v 1.483684 0.986513 -0.400681
v 1.288737 1.178869 -0.400681
v 0.912665 0.686634 -0.400681
v 1.021259 0.617392 -0.400681
v 1.021259 0.617392 0.400681
v 0.912665 0.686634 0.400681
v -1.117314 0.686634 -0.400681
v -1.145985 0.676464 -0.400681
v -1.378707 1.298391 -0.400681
v -1.210592 1.344764 -0.400681
v -1.378707 1.298391 0.400681
v -1.210592 1.344764 0.400681
v -1.145985 0.676464 0.400681
v -1.117314 0.686634 0.400681
vt 0.815490 0.437190
vt 0.842786 0.601922
vt 0.842786 0.688591
vt 0.815490 0.707206
vt 0.502617 0.396232
vt 0.528997 0.436163
vt 0.528997 0.563948
vt 0.502617 0.601318
vt 0.999441 0.707258
vt 0.971298 0.688620
vt 0.971298 0.601969
vt 0.999441 0.437243
vt 0.250569 0.708410
vt 0.390364 0.708310
vt 0.531238 0.708312
vt 0.531238 0.999899
vt 0.250568 0.999894
vt 0.342206 0.374805
vt 0.341469 0.415071
vt 0.174308 0.415071
vt 0.001332 0.415071
vt 0.001370 0.374805
vt 0.174348 0.374805
vt 0.717730 0.707316
vt 0.658168 0.688490
vt 0.658056 0.624012
vt 0.717577 0.603646
vt 0.906860 0.999898
vt 0.812233 0.999942
vt 0.812233 0.813285
vt 0.906860 0.813291
vt 0.689929 0.563449
vt 0.717197 0.601318
vt 0.608072 0.601318
vt 0.717197 0.396232
vt 0.689929 0.436810
vt 0.531133 0.708306
vt 0.812632 0.708306
vt 0.812381 1.000260
vt 0.531133 1.000230
vt 0.907381 0.708626
vt 1.000956 0.708462
vt 1.000956 0.854016
vt 0.907381 0.853986
vt 0.906883 0.853847
vt 1.000224 0.853789
vt 1.000224 0.999807
vt 0.906883 0.999994
vt 0.813244 0.813228
vt 0.906959 0.813247
vt 0.906959 1.000016
vt 0.813244 1.000010
vt 0.249614 0.708209
vt -0.000678 0.708235
vt -0.000678 0.562681
vt 0.249614 0.562655
vt 0.560727 0.624012
vt 0.501935 0.603646
vt 0.502088 0.707316
vt 0.560840 0.688490
vt 0.500233 0.562615
vt 0.469997 0.582942
vt 0.282226 0.583238
vt 0.250366 0.562541
vt 0.250180 0.854180
vt 0.250186 1.000066
vt 0.001129 1.000066
vt 0.001124 0.854180
vt 0.000431 0.416101
vt 0.249696 0.416101
vt 0.249696 0.561314
vt 0.000431 0.561314
vt 0.248119 0.853687
vt 0.000110 0.853699
vt 0.000110 0.708126
vt 0.248119 0.708115
vt 0.282226 0.687384
vt 0.469485 0.687430
vt 0.250366 0.707985
vt 0.499722 0.708059
vt 0.624420 0.083435
vt 0.655515 0.083576
vt 0.655209 0.166204
vt 0.624418 0.166469
vt 0.344336 0.248747
vt 0.268429 0.248747
vt 0.268429 0.165444
vt 0.344336 0.165444
vt 0.812209 0.707687
vt 0.842297 0.688002
vt 0.970351 0.688017
vt 0.999516 0.707714
vt 0.812209 0.437762
vt 0.842297 0.602551
vt 0.970351 0.602566
vt 0.999516 0.438147
vt 0.221308 0.000585
vt 0.244858 0.000551
vt 0.245056 0.082943
vt 0.221505 0.082977
vt 0.627508 0.251663
vt 0.650869 0.251557
vt 0.651333 0.332475
vt 0.628471 0.332213
vt 0.170734 0.251026
vt 0.256305 0.251026
vt 0.256305 0.330562
vt 0.170734 0.330562
vt 0.561912 0.000046
vt 0.659786 0.000046
vt 0.659786 0.082004
vt 0.561912 0.082004
vt 0.678071 0.167279
vt 0.714964 0.167057
vt 0.715138 0.249723
vt 0.678043 0.249877
vt 0.548927 0.252020
vt 0.549891 0.332570
vt 0.132999 -0.000327
vt 0.132607 0.083167
vt 0.209932 0.083682
vt 0.276066 0.082507
vt 0.275889 0.165883
vt 0.210143 0.165781
vt 0.744181 0.167456
vt 0.774915 0.167578
vt 0.774176 0.249647
vt 0.744319 0.249870
vt 0.688735 0.000046
vt 0.720304 0.000046
vt 0.720304 0.082004
vt 0.688735 0.082004
vt 0.295183 0.082546
vt 0.295005 0.165922
vt 0.167556 0.248622
vt 0.167334 0.165444
vt 0.750599 0.083646
vt 0.750215 0.166661
vt 0.276652 0.251026
vt 0.276652 0.330562
vt 0.795317 0.083740
vt 0.850651 0.083986
vt 0.850955 0.166816
vt 0.795281 0.166824
vt 0.123356 0.248833
vt 0.068683 0.248617
vt 0.069060 0.165425
vt 0.123207 0.165371
vt 0.761340 0.252543
vt 0.763243 0.332271
vt 0.270541 0.000513
vt 0.270738 0.082906
vt 0.316030 0.082589
vt 0.315852 0.165965
vt 0.298842 0.251026
vt 0.298842 0.330562
vt -0.002210 0.248865
vt -0.002356 0.165673
vt 0.342586 0.082643
vt 0.500696 0.082966
vt 0.500518 0.166342
vt 0.342409 0.166019
vt 0.327108 0.251026
vt 0.327108 0.330562
vt 0.760521 0.000046
vt 0.760521 0.082004
vt 0.817353 0.167441
vt 0.817178 0.249738
vt 0.808222 0.252543
vt 0.808222 0.333094
vt 0.303258 0.000466
vt 0.303455 0.082858
vt 0.437538 0.520756
vt 0.437538 0.479617
vt 0.499548 0.479611
vt 0.499548 0.520750
vt 0.499667 0.521099
vt 0.499667 0.563015
vt 0.437706 0.562973
vt 0.437706 0.521057
vt 0.997972 0.083244
vt 0.997667 0.166075
vt 0.495397 0.251026
vt 0.495397 0.330562
vt 0.999954 0.000046
vt 0.999954 0.082004
vt 1.000512 0.167441
vt 1.000900 0.249885
vt 1.001631 0.252542
vt 1.001631 0.333094
vt 0.498042 0.000182
vt 0.498240 0.082574
vt 0.719754 0.658314
vt 0.719754 0.524270
vt 0.797061 0.524335
vt 0.797061 0.658378
vt 0.214580 0.554469
vt 0.214580 0.554657
vt 0.214580 0.555030
vt 0.214580 0.554924
vt 0.719853 0.657572
vt 0.719853 0.521248
vt 0.797158 0.521215
vt 0.797158 0.657540
vt 0.214580 0.554469
vt 0.214580 0.554657
vt 0.214580 0.555030
vt 0.214580 0.555218
vt 0.999500 0.374845
vt 0.998930 0.436504
vt 0.907421 0.436902
vt 0.907991 0.375243
vt 0.813891 0.374959
vt 0.813891 0.500238
vt 0.720538 0.500711
vt 0.720041 0.375136
vt 0.796540 0.538931
vt 0.796540 0.658454
vt 0.719233 0.658472
vt 0.719233 0.538949
vt 0.343666 0.540989
vt 0.344093 0.416116
vt 0.436846 0.416016
vt 0.436846 0.541028
vt 0.907372 0.374981
vt 0.999449 0.374744
vt 0.999449 0.436646
vt 0.907372 0.436882
vt 0.719309 0.658338
vt 0.719309 0.541676
vt 0.796614 0.541778
vt 0.796614 0.658440
vt 0.343111 0.416809
vt 0.343283 0.540637
vt 0.251751 0.540808
vt 0.251052 0.416808
vt 0.720290 0.500685
vt 0.720108 0.375185
vt 0.813803 0.375231
vt 0.813803 0.500554
vt 0.529282 0.252109
vt 0.530246 0.332659
vt 0.641077 0.167204
vt 0.641159 0.249727
vt 0.394251 0.248747
vt 0.394251 0.165444
vt 0.591387 0.083393
vt 0.591220 0.166375
vt 0.181454 0.083267
vt 0.182900 0.166034
vt 0.114489 -0.000137
vt 0.113813 0.083019
vt 0.552276 0.000046
vt 0.552276 0.082004
vt 0.141515 0.251026
vt 0.141515 0.330562
vt 0.062610 0.251026
vt 0.101468 0.251026
vt 0.101467 0.330562
vt 0.062610 0.330562
vt 0.499496 0.000046
vt 0.525494 0.000046
vt 0.525494 0.082004
vt 0.499496 0.082004
vt 0.040161 -0.000241
vt 0.072499 -0.000348
vt 0.073832 0.083218
vt 0.040491 0.083254
vt 0.067757 0.083625
vt 0.138803 0.083353
vt 0.138747 0.166696
vt 0.068070 0.166831
vt 0.532774 0.083297
vt 0.559622 0.083206
vt 0.559506 0.166372
vt 0.532721 0.166424
vt 0.479507 0.248747
vt 0.452038 0.248747
vt 0.452038 0.165444
vt 0.479507 0.165444
vt 0.570243 0.167279
vt 0.611360 0.166743
vt 0.610505 0.249720
vt 0.570369 0.249747
vt 0.508934 0.252202
vt 0.513895 0.252179
vt 0.514858 0.332729
vt 0.509897 0.332752
vt 0.504560 0.252222
vt 0.505523 0.332772
vt 0.500064 0.167691
vt 0.499840 0.249681
vt 0.498425 0.248747
vt 0.498425 0.165444
vt 0.501859 0.083100
vt 0.501677 0.166226
vt 0.000135 0.083754
vt 0.000216 0.166837
vt 0.000110 -0.000104
vt -0.000587 0.083076
vt 0.800800 0.476927
vt 0.802016 0.476926
vt 0.802016 0.534667
vt 0.800800 0.534667
vt 0.002821 0.251026
vt 0.002821 0.330562
vt 0.174598 0.333268
vt 0.342223 0.333268
vt 0.342183 0.374627
vt 0.174558 0.374627
vt 0.001100 0.374627
vt 0.001140 0.333268
vn 1.0000 -0.0000 0.0000
vn -0.0000 0.0000 -1.0000
vn 0.0000 -0.0000 1.0000
vn 0.0000 -1.0000 -0.0000
vn 0.0000 1.0000 0.0000
vn -1.0000 0.0000 0.0000
vn 0.0000 0.8970 0.4420
vn 0.0000 0.8970 -0.4420
vn -0.4368 0.8995 0.0000
vn 0.4368 0.8995 0.0000
vn -0.8732 0.4874 0.0000
vn 0.9757 -0.2127 0.0518
vn 0.9925 0.1225 0.0000
vn -0.9948 -0.1018 -0.0000
vn 0.8732 -0.4874 -0.0000
vn 0.0249 -0.0753 0.9968
vn -0.9999 0.0130 0.0000
vn -0.9822 0.1786 -0.0577
vn -0.0244 -0.0146 -0.9996
vn 0.9999 -0.0130 -0.0000
vn -0.0620 -0.8967 -0.4383
vn -0.9993 -0.0261 -0.0259
vn 0.9855 0.1401 -0.0957
vn -0.9930 0.0767 -0.0902
vn -0.1845 -0.7719 -0.6084
vn -0.9965 -0.0025 0.0830
vn 0.0000 0.9995 0.0303
vn 0.9994 0.0133 -0.0331
vn -0.0132 -0.9999 -0.0000
vn 0.0837 -0.0302 0.9960
vn -0.0000 -0.9995 -0.0303
vn 0.9965 0.0025 -0.0830
vn -0.9763 -0.2164 0.0000
vn 0.0001 0.0000 1.0000
vn 0.9926 -0.1211 0.0000
vn -0.2366 -0.9716 0.0000
vn -0.9926 0.1215 0.0000
vn 0.2648 -0.9643 0.0000
vn 0.9837 0.1797 0.0000
vn -0.8658 0.5003 0.0000
vn -0.9850 -0.1727 -0.0000
vn 0.8805 0.4740 0.0000
vn 0.7024 0.7118 0.0000
vn -0.5376 -0.8432 -0.0000
vn -0.2659 0.9640 0.0000
vn 0.3343 -0.9425 -0.0000
vn -0.4992 0.8665 0.0000
vn 0.5525 -0.8335 -0.0000
vn 0.3937 0.9192 0.0000
vn 0.8300 0.5577 0.0000
vn -0.8071 -0.5904 -0.0000
usemtl None
s 1
f 1/1/1 2/2/1 3/3/1 4/4/1
f 5/5/2 6/6/2 7/7/2 8/8/2
f 9/9/1 10/10/1 11/11/1 12/12/1
f 13/13/3 14/14/3 1/15/3 4/16/3 15/17/3
f 13/18/4 16/19/4 17/20/4 18/21/4 1/22/4 14/23/4
f 9/24/5 19/25/5 20/26/5 4/27/5
f 6/28/6 21/29/6 22/30/6 7/31/6
f 8/8/2 7/7/2 23/32/2 12/33/2 24/34/2
f 9/35/2 25/36/2 6/6/2 5/5/2
f 12/33/2 23/32/2 25/36/2 9/35/2
f 26/37/2 22/38/2 21/39/2 27/40/2
f 7/41/4 22/42/4 26/43/4 23/44/4
f 25/45/5 27/46/5 21/47/5 6/48/5
f 23/49/1 26/50/1 27/51/1 25/52/1
f 19/53/1 28/54/1 29/55/1 20/56/1
f 4/27/5 20/26/5 30/57/5 15/58/5
f 5/59/5 31/60/5 19/25/5 9/24/5
f 15/58/5 30/57/5 31/60/5 5/59/5
f 29/61/7 32/62/7 33/63/7 34/64/7
f 20/65/3 29/66/3 34/67/3 30/68/3
f 31/69/2 35/70/2 28/71/2 19/72/2
f 30/73/6 34/74/6 35/75/6 31/76/6
f 36/77/5 33/63/5 32/62/5 37/78/5
f 35/79/8 36/77/8 37/78/8 28/80/8
f 34/64/9 33/63/9 36/77/9 35/79/9
f 28/80/10 37/78/10 32/62/10 29/61/10
f 38/81/2 39/82/2 40/83/2 41/84/2
f 41/85/11 40/86/11 42/87/11 43/88/11
f 5/89/6 44/90/6 45/91/6 15/92/6
f 8/93/6 46/94/6 44/90/6 5/89/6
f 4/4/1 3/3/1 10/10/1 9/9/1
f 12/12/1 11/11/1 2/2/1 1/1/1
f 15/92/6 45/91/6 47/95/6 13/96/6
f 13/96/6 47/95/6 46/94/6 8/93/6
f 48/97/2 49/98/2 50/99/2 51/100/2
f 52/101/12 53/102/12 54/103/12 39/104/12
f 55/105/13 56/106/13 48/107/13 57/108/13
f 58/109/14 51/110/14 59/111/14 60/112/14
f 43/113/3 42/114/3 52/115/3 61/116/3
f 61/117/15 52/101/15 39/104/15 38/118/15
f 57/119/2 48/97/2 51/100/2 58/120/2
f 60/121/3 59/122/3 56/123/3 55/124/3
f 62/125/16 63/126/16 64/127/16 53/128/16
f 50/129/17 65/130/17 66/131/17 67/132/17
f 59/122/3 67/133/3 68/134/3 56/123/3
f 40/86/18 69/135/18 62/136/18 42/87/18
f 39/82/19 54/137/19 69/138/19 40/83/19
f 56/106/20 68/139/20 49/140/20 48/107/20
f 51/110/17 50/129/17 67/132/17 59/111/17
f 42/114/3 62/125/3 53/128/3 52/115/3
f 70/141/21 71/142/21 72/143/21 73/144/21
f 73/145/22 72/146/22 74/147/22 63/148/22
f 53/102/23 64/149/23 70/150/23 54/103/23
f 49/98/2 75/151/2 65/152/2 50/99/2
f 67/133/3 66/153/3 76/154/3 68/134/3
f 69/135/24 73/145/24 63/148/24 62/136/24
f 54/137/25 70/141/25 73/144/25 69/138/25
f 68/139/20 76/155/20 75/156/20 49/140/20
f 72/146/26 77/157/26 78/158/26 74/147/26
f 79/159/3 80/160/3 81/161/3 82/162/3
f 76/155/20 82/163/20 83/164/20 75/156/20
f 65/130/17 84/165/17 79/166/17 66/131/17
f 63/126/27 74/167/27 85/168/27 64/127/27
f 64/149/28 85/169/28 71/170/28 70/150/28
f 75/151/2 83/171/2 84/172/2 65/152/2
f 66/153/3 79/159/3 82/162/3 76/154/3
f 80/173/29 86/174/29 87/175/29 81/176/29
f 88/177/30 89/178/30 78/179/30 77/180/30
f 71/142/31 88/181/31 77/182/31 72/143/31
f 82/163/20 81/183/20 87/184/20 83/164/20
f 84/165/17 86/185/17 80/186/17 79/166/17
f 74/167/27 78/187/27 89/188/27 85/168/27
f 85/169/32 89/189/32 88/190/32 71/170/32
f 83/171/2 87/191/2 86/192/2 84/172/2
f 90/193/33 91/194/33 92/195/33 17/196/33
f 8/197/3 93/198/3 16/199/3 13/200/34
f 17/201/35 94/202/35 95/203/35 90/204/35
f 1/205/4 18/206/4 96/207/4 12/208/4
f 94/209/36 97/210/36 98/211/36 95/212/36
f 90/213/2 95/214/2 98/215/2 93/216/2
f 93/217/37 98/218/37 97/219/37 16/220/37
f 16/221/3 97/222/3 94/223/3 17/224/3
f 99/225/38 100/226/38 92/227/38 91/228/38
f 18/229/39 100/230/39 99/231/39 96/232/39
f 17/233/3 92/234/3 100/235/3 18/236/3
f 96/237/2 99/238/2 91/239/2 90/240/2
f 101/241/15 61/117/15 38/118/15 102/242/15
f 103/243/3 43/113/3 61/116/3 101/244/3
f 104/245/40 41/85/40 43/88/40 103/246/40
f 102/247/2 38/81/2 41/84/2 104/248/2
f 105/249/3 60/121/3 55/124/3 106/250/3
f 107/251/2 57/119/2 58/120/2 108/252/2
f 108/253/41 58/109/41 60/112/41 105/254/41
f 106/255/42 55/105/42 57/108/42 107/256/42
f 109/257/43 110/258/43 111/259/43 112/260/43
f 113/261/44 114/262/44 115/263/44 116/264/44
f 112/265/2 111/266/2 114/267/2 113/268/2
f 116/269/3 115/270/3 110/271/3 109/272/3
f 117/273/2 118/274/2 119/275/2 120/276/2
f 120/277/45 119/278/45 121/279/45 122/280/45
f 122/281/3 121/282/3 123/283/3 124/284/3
f 124/285/46 123/286/46 118/287/46 117/288/46
f 118/274/2 102/247/2 104/248/2 119/275/2
f 119/278/47 104/245/47 103/246/47 121/279/47
f 121/282/3 103/243/3 101/244/3 123/283/3
f 123/286/48 101/241/48 102/242/48 118/287/48
f 47/289/4 124/285/4 117/288/4 46/290/4
f 45/291/3 122/281/3 124/284/3 47/292/3
f 44/293/5 120/277/5 122/280/5 45/294/5
f 46/295/2 117/273/2 120/276/2 44/296/2
f 2/297/3 116/269/3 109/272/3 3/298/3
f 10/299/2 112/265/2 113/268/2 11/300/2
f 11/301/4 113/302/4 116/303/4 2/304/4
f 3/305/49 109/257/49 112/260/49 10/306/49
f 110/258/50 106/255/50 107/256/50 111/259/50
f 114/262/51 108/253/51 105/254/51 115/263/51
f 111/266/2 107/251/2 108/252/2 114/267/2
f 115/270/3 105/249/3 106/250/3 110/271/3
f 90/307/4 93/308/4 8/309/4 24/310/4 12/311/4 96/312/4
